<?xml version="1.0" encoding="utf-8"?>
<!-- Generator: Adobe Illustrator 16.0.0, SVG Export Plug-In . SVG Version: 6.00 Build 0)  -->
<!DOCTYPE svg PUBLIC "-//W3C//DTD SVG 1.1//EN" "http://www.w3.org/Graphics/SVG/1.1/DTD/svg11.dtd">
<svg version="1.1" id="Capa_1" xmlns="http://www.w3.org/2000/svg" xmlns:xlink="http://www.w3.org/1999/xlink" x="0px" y="0px"
	 width="36.206px" height="48.283px" viewBox="1174.451 1661.911 36.206 48.283"
	 enable-background="new 1174.451 1661.911 36.206 48.283" xml:space="preserve">
<g>
	<path fill="#0096E6" d="M1202.72,1666.761L1202.72,1666.761c-6.467-6.466-16.951-6.466-23.418,0l0,0
		c-5.827,5.827-6.482,16.798-1.539,23.391l13.247,19.131l13.248-19.131C1209.202,1683.559,1208.546,1672.588,1202.72,1666.761z
		 M1191.172,1683.775c-3.02,0-5.467-2.447-5.467-5.467c0-3.019,2.447-5.466,5.467-5.466c3.019,0,5.466,2.447,5.466,5.466
		C1196.638,1681.328,1194.19,1683.775,1191.172,1683.775z"/>
	<g>
		<polygon fill="#F29C21" points="1199.726,1690.152 1203.103,1696.749 1210.657,1697.806 1205.191,1702.943 1206.481,1710.195 
			1199.726,1706.771 1192.969,1710.195 1194.26,1702.943 1188.793,1697.806 1196.346,1696.749 		"/>
	</g>
</g>
</svg>
